#!OML:ASF I:\Actors\actors\Patient Classification 2\Patient 1\Session 1\actor1.ASF
:FULLY-SPECIFIED
:DEGREES

463
root -0.726508 18.1358 5.87701 2.4747 -4.89248 -1.29374
lowerback 3.18849 1.2267 3.4813
upperback -3.61002 1.85329 0.226351
thorax -5.43095 0.783543 -1.8594
lowerneck -12.5465 -4.39844 -0.893517
upperneck 19.8643 -6.69198 3.50948
head 8.39668 -2.88554 0.586361
rclavicle 8.57259e-016 -3.67752e-015
rhumerus -51.4947 16.0227 -93.7335
rradius 72.507
rwrist -2.04776
rhand -3.12589 -36.4262
rfingers 7.12502
rthumb 22.5931 -65.1241
lclavicle 8.57259e-016 -3.67752e-015
lhumerus -52.1182 -13.3836 81.8267
lradius 120.552
lwrist 10.6379
lhand -33.9168 -72.2062
lfingers 7.12502
lthumb -7.09929 -42.3452
rfemur 11.8306 5.7662 15.4914
rtibia -12.134
rfoot -11.595 -13.6549
rtoes 2.9198
lfemur 12.3749 -5.56318 -13.4224
ltibia -8.08469
lfoot -9.78229 18.2145
ltoes -12.3505
464
root -0.703493 18.1399 5.86055 2.57544 -4.99678 -1.38618
lowerback 3.41041 1.50453 3.7497
upperback -3.68941 2.24415 0.0543127
thorax -5.60406 0.957822 -2.22595
lowerneck -12.5689 -4.43247 -0.90066
upperneck 19.8995 -6.75239 3.57511
head 8.41701 -2.90625 0.601766
rclavicle -2.25558e-014 5.36719e-015
rhumerus -51.9892 13.9828 -92.8016
rradius 70.7832
rwrist -1.4473
rhand -3.33917 -36.0435
rfingers 7.12502
rthumb 22.3884 -64.7661
lclavicle -2.25558e-014 5.36719e-015
lhumerus -54.6187 -12.016 83.5904
lradius 118.492
lwrist 8.89636
lhand -33.7246 -73.7105
lfingers 7.12502
lthumb -6.91369 -43.8434
rfemur 11.4491 5.15258 15.3937
rtibia -11.9298
rfoot -11.0851 -13.1308
rtoes 2.68722
lfemur 12.3542 -5.42143 -13.375
ltibia -8.35675
lfoot -9.65046 18.2175
ltoes -12.0215
465
root -0.699367 18.1386 5.85873 2.49571 -4.65755 -1.41566
lowerback 3.50502 1.642 3.69543
upperback -3.62872 2.42154 -0.0663854
thorax -5.57961 1.04664 -2.33675
lowerneck -12.6698 -4.42819 -0.933666
upperneck 19.8831 -6.76037 3.68312
head 8.43551 -2.89942 0.639959
rclavicle 5.45726e-015 -2.33572e-015
rhumerus -52.4409 11.8915 -91.7622
rradius 69.1226
rwrist -0.613345
rhand -3.65193 -35.3547
rfingers 7.12502
rthumb 22.0882 -64.1131
lclavicle 5.45726e-015 -2.33572e-015
lhumerus -56.6638 -10.4701 85.0411
lradius 116.27
lwrist 7.48672
lhand -33.3751 -75.1678
lfingers 7.12502
lthumb -6.57634 -45.2899
rfemur 11.4971 4.92024 15.4361
rtibia -11.7399
rfoot -11.2027 -13.1474
rtoes 2.36739
lfemur 12.5023 -5.74757 -13.3606
ltibia -8.63326
lfoot -9.49795 18.226
ltoes -12.08
466
root -0.69634 18.1378 5.85557 2.41085 -4.34995 -1.39497
lowerback 3.60405 1.78821 3.54671
upperback -3.53766 2.60355 -0.198552
thorax -5.5281 1.14235 -2.40664
lowerneck -12.7788 -4.41525 -0.925529
upperneck 19.7942 -6.76753 3.82006
head 8.43076 -2.88749 0.68154
rclavicle -3.07829e-014 -6.95746e-015
rhumerus -52.7345 9.82841 -90.6638
rradius 67.7852
rwrist -0.88214
rhand -3.8034 -35.9457
rfingers 7.12502
rthumb 21.9427 -64.7213
lclavicle -3.07829e-014 -6.95746e-015
lhumerus -58.2049 -8.91256 86.1446
lradius 113.89
lwrist 6.5185
lhand -32.9238 -76.2609
lfingers 7.12502
lthumb -6.14065 -46.3699
rfemur 11.547 4.7799 15.4296
rtibia -11.5693
rfoot -11.3578 -13.2197
rtoes 2.30008
lfemur 12.6407 -6.04459 -13.3988
ltibia -8.90533
lfoot -9.304 18.238
ltoes -12.441
467
root -0.695971 18.1356 5.84656 2.25755 -3.93017 -1.42319
lowerback 3.8395 1.88313 3.41013
upperback -3.47636 2.72539 -0.293695
thorax -5.59143 1.20543 -2.44684
lowerneck -12.7933 -4.49518 -0.987423
upperneck 19.7093 -6.88667 3.94687
head 8.41521 -2.9364 0.72058
rclavicle 1.19022e-014 9.54166e-015
rhumerus -53.0768 7.93507 -89.6381
rradius 66.2572
rwrist -0.644223
rhand -5.18886 -35.1918
rfingers 7.12502
rthumb 20.6119 -64.1174
lclavicle 1.19022e-014 9.54166e-015
lhumerus -59.4432 -7.31876 87.0303
lradius 111.336
lwrist 5.80999
lhand -32.6267 -77.0445
lfingers 7.12502
lthumb -5.85377 -47.1453
rfemur 11.7215 4.74938 15.5206
rtibia -11.4426
rfoot -11.7306 -13.4333
rtoes 2.60538
lfemur 12.7882 -6.45943 -13.39
ltibia -9.14036
lfoot -9.07421 18.281
ltoes -13.1446
468
root -0.694887 18.1322 5.8387 2.07535 -3.44942 -1.47796
lowerback 4.09505 1.93315 3.30058
upperback -3.46154 2.79175 -0.35153
thorax -5.71977 1.23866 -2.46169
lowerneck -12.6593 -4.62854 -1.13632
upperneck 19.6349 -7.05318 4.03384
head 8.37918 -3.02076 0.758611
rclavicle 1.19022e-014 3.08116e-015
rhumerus -53.4576 5.95389 -88.3836
rradius 64.6425
rwrist -0.530897
rhand -4.50522 -37.4839
rfingers 7.12502
rthumb 21.2687 -66.3369
lclavicle 1.19022e-014 3.08116e-015
lhumerus -60.4585 -5.61864 87.7192
lradius 108.596
lwrist 5.26829
lhand -32.335 -77.4189
lfingers 7.12502
lthumb -5.5722 -47.5122
rfemur 11.9504 4.54044 15.6318
rtibia -11.3243
rfoot -12.0173 -13.5666
rtoes 2.55603
lfemur 12.9692 -6.93452 -13.3701
ltibia -9.37103
lfoot -8.83425 18.3319
ltoes -13.7531
469
root -0.690967 18.1306 5.83222 1.96331 -3.04581 -1.5088
lowerback 4.27313 1.99962 3.17765
upperback -3.47048 2.87604 -0.409652
thorax -5.82837 1.28155 -2.46868
lowerneck -12.5444 -4.68545 -1.26499
upperneck 19.6172 -7.11906 4.11062
head 8.36197 -3.05559 0.800542
rclavicle 2.11022e-014 -9.93923e-016
rhumerus -53.7908 3.87343 -86.9886
rradius 63.1112
rwrist -0.626874
rhand -4.06695 -37.653
rfingers 7.12502
rthumb 21.6897 -66.458
lclavicle 2.11022e-014 -9.93923e-016
lhumerus -61.1742 -4.10437 88.2275
lradius 105.728
lwrist 4.89059
lhand -32.3327 -77.6795
lfingers 7.12502
lthumb -5.56993 -47.7727
rfemur 12.065 4.13768 15.6631
rtibia -11.1933
rfoot -12.0484 -13.5294
rtoes 2.18211
lfemur 13.0992 -7.32216 -13.3868
ltibia -9.61037
lfoot -8.5975 18.3757
ltoes -14.1384
470
root -0.687714 18.1309 5.82349 1.90519 -2.66036 -1.51929
lowerback 4.41532 2.08232 3.03189
upperback -3.48187 2.97795 -0.479266
thorax -5.91858 1.33432 -2.47535
lowerneck -12.522 -4.70613 -1.4002
upperneck 19.6873 -7.14718 4.22792
head 8.3921 -3.06537 0.858357
rclavicle 4.66771e-014 7.7526e-015
rhumerus -54.1698 1.86732 -85.6365
rradius 61.6324
rwrist -0.313237
rhand -4.2582 -36.4946
rfingers 7.12502
rthumb 21.506 -65.3207
lclavicle 4.66771e-014 7.7526e-015
lhumerus -61.6602 -2.92829 88.6143
lradius 102.849
lwrist 4.69013
lhand -32.6742 -77.7006
lfingers 7.12502
lthumb -5.89963 -47.8027
rfemur 12.0983 3.8708 15.6736
rtibia -11.0455
rfoot -12.2069 -13.5402
rtoes 2.35706
lfemur 13.152 -7.68651 -13.4167
ltibia -9.84185
lfoot -8.38428 18.4235
ltoes -14.3961
471
root -0.685503 18.1307 5.81571 1.84405 -2.26074 -1.50029
lowerback 4.52294 2.15296 2.86686
upperback -3.48507 3.05927 -0.570487
thorax -5.98163 1.37799 -2.4905
lowerneck -12.517 -4.77449 -1.50373
upperneck 19.7691 -7.24716 4.33475
head 8.43026 -3.10731 0.898883
rclavicle 1.70209e-015 1.98785e-016
rhumerus -54.6282 -0.0177617 -84.3525
rradius 60.1372
rwrist 0.362787
rhand -4.60587 -35.8349
rfingers 7.12502
rthumb 21.1721 -64.6988
lclavicle 1.70209e-015 1.98785e-016
lhumerus -62.0113 -1.96554 88.8274
lradius 99.99
lwrist 4.80764
lhand -32.7538 -77.2832
lfingers 7.12502
lthumb -5.9765 -47.3875
rfemur 12.1335 3.75914 15.6742
rtibia -10.8815
rfoot -12.5114 -13.6523
rtoes 2.69115
lfemur 13.1893 -8.06871 -13.4645
ltibia -10.0388
lfoot -8.21308 18.4567
ltoes -14.3923
